.
..............................Site Info...........................

 -   http://www.scenetime.com  *_*   

Good news ! SceneTime will open sign up on Easter day for one day . Its a good chance to sign in on Easter day .

Scenetime .Always on time . friendly online private torrent community ..

     We care to share . Join us on  http://www.scenetime.com 

    Be the first to get new release at  http://www.scenetime.com

        Seed back for speed


...................................NFO:.................................................Project X 2012 TS READNFO XviD - ILLUMINATI

Video
ID                               : 0
Format                           : MPEG-4 Visual
Format profile                   : Advanced Simple@L5
Format settings, BVOP            : 2
Format settings, QPel            : No
Format settings, GMC             : No warppoints
Format settings, Matrix          : Default (H.263)
Muxing mode                      : Packed bitstream
Codec ID                         : XVID
Codec ID/Hint                    : XviD
Duration                         : 1h 21mn
Bit rate                         : 2 270 Kbps
Width                            : 720 pixels
Height                           : 304 pixels
Display aspect ratio             : 2.35:1
Frame rate                       : 15.000 fps
Color space                      : YUV
Chroma subsampling               : 4:2:0
Bit depth                        : 8 bits
Scan type                        : Progressive
Compression mode                 : Lossy
Bits/(Pixel*Frame)               : 0.691
Stream size                      : 1.30 GiB (94%)
Writing library                  : XviD 64

Audio
ID                               : 1
Format                           : MPEG Audio
Format version                   : Version 1
Format profile                   : Layer 3
Mode                             : Joint stereo
Mode extension                   : MS Stereo
Codec ID                         : 55
Codec ID/Hint                    : MP3
Duration                         : 1h 21mn
Bit rate mode                    : Constant
Bit rate                         : 128 Kbps
Channel(s)                       : 2 channels
Sampling rate                    : 44.1 KHz
Compression mode                 : Lossy
Stream size                      : 74.8 MiB (5%)
Alignment                        : Split accross interleaves
Interleave, duration             : 67 ms (1.00 video frame)

SOURCES - 
 V: ELEKTRI4KA
 A: ADTRG / QUARTERPAST / LittlebirD

READNFO
mix of 2 line audios and possibly cam audio
english subs hardcoded in white and yellow when needed

[img]http://i.imgur.com/FZMST.png[/img]
[img]http://i.imgur.com/aoRBD.png[/img]
[img]http://i.imgur.com/wY4W7.png[/img]
[img]http://i.imgur.com/IdKGC.png[/img]